# xmcd CD database file
#
# Track frame offsets:
#	150
#	21510
#	54995
#	83022
#	103797
#	137967
#	171065
#	201552
#	221982
#
# Disc length: 3436 seconds
#
# Revision: 1
# Processed by: cddbd v1.5PL3 Copyright (c) Steve Scherf et al.
# Submitted via: CDex 1.50beta10
#
DISCID=870d6a09
DTITLE=Robert Mazurek Quartet - Main Facing Eastpin'
DYEAR=1993
DGENRE=Jazz
TTITLE0=Manaus
TTITLE1=Pretty Blue Butterfly
TTITLE2=Flora's House
TTITLE3=Tenderly
TTITLE4=Man Facing East
TTITLE5=Rodelis
TTITLE6=Freddie's Blues
TTITLE7=I Wish I Knew
TTITLE8=Dragon Blues
EXTD=YEAR: 1993
EXTT0=
EXTT1=
EXTT2=
EXTT3=
EXTT4=
EXTT5=
EXTT6=
EXTT7=
EXTT8=
PLAYORDER=
